<svg width="33" height="36" viewBox="0 0 33 36" fill="none" xmlns="http://www.w3.org/2000/svg">
<g clip-path="url(#clip0_76_976)">
<path d="M16.498 29.2349L0.00116007 34.1948L0 34.675H0.0139209L1.14209 35.5L14.3414 34.5321C13.7933 35.3155 14.3414 35.5 14.3414 35.5H18.658C18.658 35.5 19.2062 35.3155 18.658 34.5321L31.8573 35.4988L32.9855 34.6738L32.9867 34.2042L16.498 29.2349Z" fill="white"/>
<path d="M32.9995 34.1949L29.5662 3.68905L29.5088 2.87984V2.91673L29.1096 3.38263C25.2512 2.68409 24.136 1.13778 21.6413 0.829789C17.9703 0.376584 16.4702 2.60288 16.4702 2.60288C16.4702 2.60288 15.1073 0.426454 11.4363 0.879658C8.94209 1.18765 7.21687 2.99226 3.4333 3.69139L0.0012207 34.1949L0.149424 32.9587L1.00874 34.1111C5.58291 33.3974 7.52197 32.0852 10.4506 31.7772C14.7614 31.324 16.4713 32.9342 16.4713 32.9342C16.4713 32.9342 18.1807 31.324 22.4921 31.7772C25.4207 32.0852 27.3644 33.3974 31.9931 34.1111L32.9867 34.2042H33.0001L31.9931 34.1111L32.9995 34.1949ZM22.491 31.0915C6.5856 8.28726 14.5383 19.6894 22.491 31.0915V31.0915Z" fill="white"/>
<path d="M32.9997 35.4948L32.9855 35.4979L33.0003 35.4991L32.9997 35.4948Z" fill="#231F20"/>
<path d="M1.06555 33.4178L1.07077 33.3593H1.06555V33.4178Z" fill="black"/>
<path d="M32.9997 34.1948L30.4191 3.70366L29.5091 2.87981V2.9167L29.505 2.88391C25.6466 2.18537 24.0869 0.888408 21.5922 0.580417C17.9211 0.127212 16.4652 1.73743 16.4652 1.73743C16.4652 1.73743 15.0087 0.127212 11.3377 0.580417C8.84354 0.888408 7.267 2.18069 3.48342 2.87981L2.57741 3.70366L0.00146484 34.1948V34.2054L1.00899 34.1111C5.58315 33.3973 7.52221 32.0852 10.4508 31.7772C14.7616 31.324 16.4716 32.9342 16.4716 32.9342C16.4716 32.9342 18.181 31.324 22.4924 31.7772C25.421 32.0852 27.3647 33.3973 31.9934 34.1111L32.987 34.2042H33.0003V34.1978L32.9997 34.1948ZM22.4912 31.0915C18.1798 30.6377 16.4704 32.2485 16.4704 32.2485C16.4704 32.2485 14.7582 30.6354 10.4497 31.0892C7.52163 31.3966 5.64348 32.6449 1.06931 33.3587L1.06409 33.4173V33.3587H1.06931L3.43354 3.69137C7.20377 2.99224 8.85282 1.57758 11.3429 1.27018C15.014 0.816387 16.4704 2.60286 16.4704 2.60286C16.4704 2.60286 17.9263 0.816387 21.5974 1.27018C24.0846 1.577 25.733 2.98872 29.5665 3.68902L31.9365 33.3482C27.3084 32.6344 25.4192 31.3966 22.4912 31.0892V31.0915Z" fill="#222222"/>
<path d="M16.498 33.3054L1.00752 34.5807L0 34.675H0.0139209L1.14209 35.5L14.3414 34.5321C13.7933 35.3156 14.3414 35.5 14.3414 35.5H18.658C18.658 35.5 19.2062 35.3156 18.658 34.5321L31.8573 35.4988L32.9855 34.6738L31.9919 34.5807L16.498 33.3054Z" fill="#222222"/>
<path d="M28.4583 15.6305C28.3276 14.9477 28.0928 14.2896 27.7623 13.6795L27.7693 13.6836L28.1828 12.5628L27.5639 11.9392L26.9456 11.3151L26.01 11.6664C25.3894 11.2091 24.6812 10.8875 23.9306 10.7219L23.4979 9.76691H21.7496L21.2734 10.8209C20.5825 11.0338 19.9315 11.3613 19.3471 11.7899L18.2451 11.3748L17.6262 11.9978L17.0084 12.6214L17.368 13.5981C17.2375 13.7521 17.1105 13.9113 16.9858 14.0723V14.0794L18.3234 16.2541C18.6678 15.7612 19.0501 15.2964 19.4666 14.864L19.4939 14.8365C19.5426 14.7873 19.5919 14.7387 19.6418 14.6901L19.7386 14.5976C19.9487 14.3983 20.1688 14.2101 20.3982 14.0337C20.9625 13.6004 21.5466 13.3199 22.1232 13.1905L22.1876 13.1777C22.2276 13.1695 22.2676 13.1636 22.3076 13.1566C23.1536 13.0242 24.0173 13.2321 24.713 13.7357C24.7577 13.7685 24.8024 13.8001 24.8464 13.8358C24.8662 13.851 24.8853 13.8674 24.9045 13.8832C26.3319 15.0865 26.724 17.1892 25.8325 18.903C25.6182 19.3202 25.3309 19.6947 24.9845 20.0085L24.9723 20.0196C24.9572 20.0331 24.941 20.046 24.9253 20.0594C24.7593 20.1995 24.5799 20.3226 24.39 20.4272C24.0021 20.6462 23.5751 20.7855 23.1336 20.837C22.4952 20.8947 21.8539 20.7643 21.2873 20.4617C20.6806 20.1455 20.1522 19.6384 19.6052 19.1964C19.5206 19.1284 19.4388 19.0558 19.357 18.9815C18.7915 18.3784 18.306 17.6974 17.8489 16.9848H17.8419L16.4812 14.7674V14.7709C16.2132 14.3761 15.9249 13.9958 15.6175 13.6314L15.9916 12.6196L15.3733 11.9978L14.7579 11.3736L13.6477 11.7917L13.6721 11.8321C13.1035 11.4076 12.4714 11.0775 11.7997 10.8542L11.3078 9.76691H9.55959L9.13675 10.7038C8.36505 10.8564 7.63467 11.1741 6.99467 11.6354L5.99585 11.2594L5.37753 11.8807L4.75979 12.5043L5.17394 13.625L5.25282 13.5764C4.89249 14.2118 4.63776 14.9025 4.49878 15.6211L3.45471 16.1018V17.8666L4.49878 18.3479C4.63685 19.0673 4.89162 19.7588 5.25282 20.3944L5.16988 20.3434L4.75573 21.4642L5.37347 22.0877L5.99179 22.7119L7.00105 22.3319C7.16683 22.4484 7.33878 22.5557 7.51613 22.6534L7.63213 22.7178L7.69014 22.7471C8.14489 22.9819 8.63011 23.151 9.13153 23.2494L9.56249 24.2021H11.3107L11.7997 23.1171L11.7852 23.1136C12.4624 22.8951 13.0993 22.5655 13.6703 22.1381L13.6448 22.1797L14.7579 22.5948L15.3762 21.9706L15.9945 21.347L15.6158 20.3224C15.7347 20.1836 15.8478 20.0407 15.9638 19.8955L14.6175 17.7126C14.3076 18.1591 13.9668 18.5829 13.5978 18.9809C13.516 19.0553 13.4342 19.1279 13.3496 19.1958C12.8003 19.6379 12.2718 20.1449 11.6674 20.4611C11.1009 20.7638 10.4596 20.8942 9.82119 20.8365C9.3797 20.7849 8.95269 20.6456 8.56483 20.4266C8.37485 20.322 8.19553 20.1989 8.02946 20.0589C8.0138 20.0454 7.99814 20.0331 7.98247 20.019L7.96971 20.0079C7.62293 19.6938 7.33541 19.3189 7.12112 18.9013C6.23077 17.1874 6.62345 15.0847 8.04918 13.8815C8.06774 13.8657 8.0863 13.8498 8.10718 13.8346C8.15127 13.7989 8.19651 13.7667 8.24175 13.7339C8.93754 13.2304 9.80118 13.0225 10.6472 13.1548C10.6872 13.1618 10.7272 13.1677 10.7672 13.1759L10.8316 13.1888C11.4082 13.3182 11.9917 13.5987 12.5566 14.0319C12.786 14.2083 13.0061 14.3965 13.2161 14.5958C13.248 14.6263 13.2805 14.6544 13.313 14.6883C13.3629 14.7369 13.4122 14.7855 13.4609 14.8347L13.4882 14.8622C14.1024 15.4929 14.6297 16.209 15.1123 16.9702L16.4783 19.194C16.7675 19.615 17.0798 20.0192 17.4139 20.4049L17.0658 21.3465L17.6842 21.9701L18.3025 22.5942L19.368 22.1931C19.9447 22.6139 20.5875 22.9336 21.2694 23.1388L21.7496 24.2015H23.4979L23.9393 23.226C24.3985 23.1241 24.8428 22.963 25.2612 22.7465L25.3192 22.7172L25.4352 22.6528C25.6299 22.5454 25.8182 22.4266 25.999 22.2968L26.9444 22.6528L27.5628 22.0286L28.1805 21.405L27.7669 20.2843L27.7565 20.2902C28.0895 19.6795 28.3258 19.02 28.4566 18.3356L28.463 18.3632L29.5407 17.866V16.1018L28.4641 15.6047L28.4583 15.6305Z" fill="#222222"/>
</g>
<defs>
<clipPath id="clip0_76_976">
<rect width="33" height="35" fill="white" transform="translate(0 0.5)"/>
</clipPath>
</defs>
</svg>
