<svg width="55" height="56" viewBox="0 0 55 56" fill="none" xmlns="http://www.w3.org/2000/svg">
<path d="M19.2509 22.3265V27.8265C22.2886 27.8265 24.7509 25.3641 24.7509 22.3265H19.2509ZM19.2509 22.3265H13.7509C13.7509 25.3641 16.2134 27.8265 19.2509 27.8265V22.3265ZM19.2509 22.3265V16.8265C16.2134 16.8265 13.7509 19.2889 13.7509 22.3265H19.2509ZM19.2509 22.3265H24.7509C24.7509 19.2889 22.2886 16.8265 19.2509 16.8265V22.3265ZM35.7509 22.3265V27.8265C38.7886 27.8265 41.2509 25.3641 41.2509 22.3265H35.7509ZM35.7509 22.3265H30.2509C30.2509 25.3641 32.7133 27.8265 35.7509 27.8265V22.3265ZM35.7509 22.3265V16.8265C32.7133 16.8265 30.2509 19.2889 30.2509 22.3265H35.7509ZM35.7509 22.3265H41.2509C41.2509 19.2889 38.7886 16.8265 35.7509 16.8265V22.3265ZM20.7126 55.3265H34.2893V49.8265H20.7126V55.3265ZM48.0949 36.2772L51.5296 34.2164L48.6999 29.5001L45.2651 31.561L48.0949 36.2772ZM9.73674 31.561L6.30202 29.5001L3.4723 34.2164L6.90702 36.2772L9.73674 31.561ZM19.2509 48.3648C19.2509 45.3077 19.2752 43.2466 18.7387 41.3364L13.4436 42.8236C13.7267 43.8315 13.7509 44.9876 13.7509 48.3648H19.2509ZM6.90702 36.2772C9.80299 38.0147 10.7819 38.6304 11.5004 39.3916L15.5001 35.6164C14.138 34.1735 12.3582 33.1337 9.73674 31.561L6.90702 36.2772ZM18.7387 41.3364C18.1374 39.1958 17.0262 37.2331 15.5001 35.6164L11.5004 39.3916C12.4161 40.3618 13.0829 41.5394 13.4436 42.8236L18.7387 41.3364ZM41.2509 48.3648C41.2509 44.9876 41.2751 43.8315 41.5584 42.8236L36.2633 41.3364C35.7267 43.2466 35.7509 45.3077 35.7509 48.3648H41.2509ZM45.2651 31.561C42.6438 33.1337 40.8637 34.1735 39.5019 35.6164L43.5015 39.3916C44.2201 38.6304 45.1988 38.0147 48.0949 36.2772L45.2651 31.561ZM41.5584 42.8236C41.9189 41.5394 42.5858 40.3618 43.5015 39.3916L39.5019 35.6164C37.9757 37.2331 36.8644 39.1958 36.2633 41.3364L41.5584 42.8236ZM34.2893 55.3265C34.9306 55.3265 35.5582 55.3281 36.0878 55.2896C36.6444 55.2495 37.3033 55.1546 37.9806 54.8543L35.7509 49.8265C35.8959 49.7621 35.9481 49.7855 35.6902 49.8042C35.4053 49.8248 35.0106 49.8265 34.2893 49.8265V55.3265ZM35.7509 48.3648C35.7509 49.0862 35.7493 49.4808 35.7287 49.7657C35.71 50.0236 35.6866 49.9714 35.7509 49.8265L40.7788 52.0564C41.0791 51.3788 41.174 50.7199 41.2141 50.1633C41.2526 49.6337 41.2509 49.0061 41.2509 48.3648H35.7509ZM37.9806 54.8543C39.228 54.301 40.2255 53.3038 40.7788 52.0564L35.7509 49.8265L37.9806 54.8543ZM20.7126 49.8265C19.9912 49.8265 19.5965 49.8248 19.3118 49.8042C19.0539 49.7855 19.106 49.7621 19.2509 49.8265L17.0211 54.8543C17.6985 55.1546 18.3575 55.2495 18.9141 55.2896C19.4439 55.3281 20.0713 55.3265 20.7126 55.3265V49.8265ZM13.7509 48.3648C13.7509 49.0061 13.7493 49.6337 13.7877 50.1633C13.828 50.7199 13.9228 51.3788 14.2232 52.0564L19.2509 49.8265C19.3152 49.9714 19.2919 50.0236 19.2733 49.7657C19.2526 49.4808 19.2509 49.0862 19.2509 48.3648H13.7509ZM19.2509 49.8265L14.2232 52.0564C14.7765 53.3041 15.7737 54.301 17.0211 54.8543L19.2509 49.8265ZM5.50095 27.8265C5.50095 15.6762 15.3507 5.82648 27.5009 5.82648V0.326477C12.3131 0.326477 0.000945845 12.6386 0.000945845 27.8265H5.50095ZM27.5009 5.82648C39.6513 5.82648 49.5009 15.6762 49.5009 27.8265H55.0009C55.0009 12.6386 42.6886 0.326477 27.5009 0.326477V5.82648ZM0.000945845 27.8265V28.0852H5.50095V27.8265H0.000945845ZM49.5009 27.8265V28.0852H55.0009V27.8265H49.5009ZM6.30202 29.5001C5.88586 29.2504 5.67414 29.122 5.52578 29.0208C5.40313 28.9372 5.43629 28.946 5.50095 29.0194L1.37061 32.6514C2.0035 33.371 2.84915 33.8424 3.4723 34.2164L6.30202 29.5001ZM0.000945845 28.0852C0.000945845 28.8121 -0.0299642 29.7795 0.261618 30.6925L5.50095 29.0194C5.53073 29.1126 5.52121 29.1457 5.51252 28.9974C5.50202 28.8181 5.50095 28.5706 5.50095 28.0852H0.000945845ZM5.50095 29.0194L0.261618 30.6925C0.492316 31.4149 0.869863 32.0818 1.37061 32.6514L5.50095 29.0194ZM51.5296 34.2164C52.1528 33.8424 52.9984 33.371 53.6312 32.6514L49.5009 29.0194C49.5656 28.946 49.5988 28.9372 49.4762 29.0208C49.3277 29.122 49.1159 29.2504 48.6999 29.5001L51.5296 34.2164ZM49.5009 28.0852C49.5009 28.5706 49.4998 28.8181 49.4894 28.9974C49.4806 29.1457 49.4712 29.1126 49.5009 29.0194L54.7402 30.6925C55.0317 29.7795 55.0009 28.8121 55.0009 28.0852H49.5009ZM53.6312 32.6514C54.1319 32.0818 54.5095 31.4149 54.7402 30.6925L49.5009 29.0194L53.6312 32.6514Z" fill="#3E6329"/>
</svg>
