<svg width="60" height="62" viewBox="0 0 60 62" fill="none" xmlns="http://www.w3.org/2000/svg">
<path d="M33.1531 3.97741V10.6989C33.1531 12.9966 32.1228 14.1019 29.977 14.1019C27.8313 14.1019 26.801 12.9966 26.801 10.6989V3.97741C26.801 1.76412 27.8313 0.658844 29.977 0.658844C32.1228 0.658844 33.1531 1.76412 33.1531 3.97741ZM39.5931 12.8251L43.544 7.29597C44.8326 5.59449 46.4645 5.25419 48.0938 6.44387C49.723 7.63354 49.8961 9.16623 48.6103 11.0392L44.6595 16.4839C43.3709 18.3569 41.8268 18.5257 40.1097 17.336C38.4777 16.1436 38.3073 14.6981 39.5931 12.8278V12.8251ZM16.4101 7.38036L20.4461 12.8251C21.7346 14.6981 21.5615 16.1436 19.8444 17.3333C18.2124 18.6101 16.6683 18.3542 15.3798 16.4812L11.3437 11.0365C10.0552 9.16351 10.2283 7.71793 11.9454 6.52826C13.5774 5.25147 15.1215 5.50737 16.4101 7.38036ZM29.977 17.9295C37.3622 17.9295 43.3709 23.8861 43.3709 31.201C43.3709 38.4316 37.3595 44.3038 29.977 44.3038C22.5946 44.3038 16.5831 38.4344 16.5831 31.201C16.5831 23.8833 22.5946 17.9295 29.977 17.9295ZM4.90643 19.8025L11.4317 21.8443C13.5774 22.5249 14.3522 23.8017 13.6653 25.8434C13.0636 27.8852 11.6047 28.4814 9.37106 27.8008L3.01618 25.759C0.87041 25.0784 0.0956252 23.7173 0.697319 21.6755C1.38419 19.7181 2.76066 19.1219 4.90643 19.8025ZM48.6076 21.8443L55.0476 19.8025C57.2813 19.1219 58.655 19.7181 59.254 21.6755C59.9408 23.7173 59.1688 25.0784 56.9351 25.6746L50.5802 27.8008C48.4345 28.4814 47.0607 27.8852 46.3739 25.8434C45.7722 23.8017 46.4591 22.5249 48.6076 21.8443ZM29.977 38.5188C34.0982 38.5188 37.4474 35.2002 37.4474 31.201C37.4474 27.1175 34.0982 23.7989 29.977 23.7989C25.8558 23.7989 22.5918 27.1175 22.5918 31.201C22.5918 35.2002 25.8558 38.5188 29.977 38.5188ZM3.01618 36.5614L9.45623 34.5196C11.602 33.839 13.0636 34.3481 13.6626 36.3926C14.3495 38.4344 13.5774 39.7112 11.4289 40.3917L4.90368 42.5179C2.75792 43.1985 1.38419 42.6023 0.697319 40.5605C0.0956252 38.5188 0.87041 37.242 3.01618 36.5614ZM50.583 34.5196L57.023 36.5614C59.1688 37.242 59.9436 38.5188 59.2567 40.5605C58.655 42.6023 57.2813 43.1985 55.0504 42.5179L48.6103 40.3917C46.3766 39.7112 45.7777 38.4344 46.3766 36.3926C47.0635 34.3508 48.4372 33.839 50.583 34.5196ZM11.3465 51.1941L15.3825 45.8337C16.6711 43.9608 18.2151 43.7076 19.8471 44.9816C21.5643 46.174 21.7374 47.6196 20.4488 49.4899L16.4128 54.8502C15.1242 56.7232 13.5802 57.0635 11.863 55.8711C10.231 54.6787 10.0607 53.0671 11.3465 51.1941ZM44.6595 45.8337L48.6103 51.1941C49.8989 53.0671 49.7258 54.6814 48.0938 55.8738C46.4618 57.0662 44.8298 56.6388 43.544 54.9373L39.5931 49.4926C38.3046 47.6196 38.4777 46.174 40.1097 44.9844C41.8268 43.792 43.3736 43.9608 44.6595 45.8337ZM33.1531 51.5344V58.2559C33.1531 60.5536 32.1228 61.6588 29.977 61.6588C27.8313 61.6588 26.801 60.5536 26.801 58.2559V51.5344C26.801 49.2367 27.8313 48.1314 29.977 48.1314C32.1228 48.1314 33.1531 49.2367 33.1531 51.5344Z" fill="#3E6329"/>
</svg>
