<svg width="51" height="63" viewBox="0 0 51 63" fill="none" xmlns="http://www.w3.org/2000/svg">
<path d="M36.4763 15.5937C30.6142 11.5073 27.3417 8.9653 28.2767 4.32089C28.3723 3.85439 28.3475 3.37139 28.2047 2.91698C28.0619 2.46257 27.8056 2.05156 27.4599 1.7223C27.1142 1.39304 26.6902 1.15627 26.2276 1.03409C25.7649 0.911907 25.2787 0.908292 24.8143 1.02358C24.565 1.08558 0 7.47447 0 31.9394C0 50.7735 10.0073 62.9397 25.5 62.9397H25.5142C25.5538 62.9397 25.7437 62.9397 26.0185 62.92C34.952 62.7255 51 57.2666 51 37.5758C51 25.7393 42.9477 20.1198 36.4763 15.5937ZM36.38 53.8651C33.1065 55.9021 29.3692 57.0847 25.5142 57.3033H25.5C22.3669 57.3514 19.2829 56.5254 16.5977 54.9191C15.6531 54.3012 14.854 53.4874 14.2554 52.5334C13.6568 51.5795 13.2728 50.508 13.1297 49.3926C12.9063 47.836 13.0784 46.2487 13.6303 44.7753C14.1821 43.3019 15.0961 41.9894 16.2888 40.9576C20.1847 36.4908 22.9982 33.2639 23.035 27.3823C28.9538 29.5354 39.6667 35.1409 39.6667 47.4395C39.6828 48.6952 39.3921 49.936 38.8196 51.0552C38.2471 52.1745 37.4099 53.1387 36.38 53.8651ZM44.8148 42.5105C42.0552 28.9267 28.1577 22.3574 20.4198 20.7257C19.9661 20.6305 19.4959 20.6476 19.0503 20.7753C18.6048 20.9031 18.1976 21.1377 17.8645 21.4584C17.5313 21.7792 17.2824 22.1765 17.1396 22.6152C16.9968 23.054 16.9644 23.521 17.0453 23.9751C18.1532 30.2146 16.4787 32.1479 12.0077 37.2658C9.94588 39.2727 8.47186 41.7998 7.7435 44.5762C6.29747 40.5213 5.59407 36.2413 5.66667 31.9394C5.67858 26.6737 7.3058 21.537 10.3309 17.2157C13.356 12.8944 17.6349 9.5943 22.5958 7.75629C23.5167 13.4434 28.6167 17.0028 33.2237 20.2156C39.4513 24.5641 45.3333 28.6731 45.3333 37.5758C45.3279 39.2339 45.1542 40.8871 44.8148 42.5105Z" fill="#3E6329"/>
</svg>
