<svg width="44" height="71" viewBox="0 0 44 71" fill="none" xmlns="http://www.w3.org/2000/svg">
<path d="M3.68225 36.2839C3.68225 36.2839 9.22949 31.9166 19.2878 31.9166" stroke="#3E6329" stroke-width="6" stroke-miterlimit="6" stroke-linecap="round" stroke-linejoin="round"/>
<path d="M6.9371 34.3594C6.9371 34.3594 4.42938 35.3282 4.42938 22.9577C4.42938 5.67418 3.00043 36.3201 3.00043 36.3201M11.0128 32.9034L12.7473 10.4035C12.7473 10.4035 13.3217 31.7741 14.7418 31.7741M32.2246 32.7374L30.4876 10.4035C30.4876 10.4035 29.9132 31.7741 28.4931 31.7741M24.2986 31.9195C24.2986 31.9195 22.3458 31.4897 21.6796 3.47955C21.6796 3.47955 21.2949 24.725 19.2991 31.917M36.396 34.2907C36.396 34.2907 38.626 35.3277 38.626 22.9577C38.626 5.67418 40.0549 36.3201 40.0549 36.3201" stroke="#3E6329" stroke-width="6" stroke-miterlimit="6" stroke-linecap="round" stroke-linejoin="round"/>
<path d="M3 36.2742C3 36.2742 21.3905 40.5737 21.3905 67.5316C21.3905 67.5316 19.4466 42.8842 40.052 36.2986M40.0494 36.2839C40.0494 36.2839 34.5018 31.9166 24.4439 31.9166" stroke="#3E6329" stroke-width="6" stroke-miterlimit="6" stroke-linecap="round" stroke-linejoin="round"/>
</svg>
