<svg width="52" height="51" viewBox="0 0 52 51" fill="none" xmlns="http://www.w3.org/2000/svg">
<path d="M0 41.3155C0.00013387 41.9182 0.249247 42.4962 0.692545 42.9223L8.03636 49.9883C8.47961 50.4144 9.0807 50.6537 9.70745 50.6537C10.3342 50.6537 10.9353 50.4144 11.3785 49.9883L29.7535 32.3222L37.1091 25.254C37.5522 24.8278 37.8011 24.2498 37.8011 23.6472C37.8011 23.0445 37.5522 22.4665 37.1091 22.0403L29.7582 14.9721C29.3149 14.546 28.7138 14.3066 28.0871 14.3066C27.4603 14.3066 26.8592 14.546 26.416 14.9721L19.0675 22.038L0.692545 39.7087C0.249247 40.1348 0.00013387 40.7128 0 41.3155ZM28.0871 19.7948L32.1053 23.6585L28.0871 27.5222L24.0807 23.6585L28.0871 19.7948ZM20.7385 26.8608L24.7567 30.7245L9.724 45.1769L5.71764 41.3132L20.7385 26.8608ZM44.4576 11.1198L40.7822 14.6539C40.3364 15.0679 39.7393 15.297 39.1196 15.2918C38.4999 15.2866 37.907 15.0476 37.4688 14.6262C37.0306 14.2048 36.782 13.6348 36.7766 13.0389C36.7712 12.443 37.0094 11.8689 37.44 11.4402L41.1273 7.90609C41.3453 7.68902 41.6061 7.51588 41.8945 7.39676C42.1829 7.27765 42.493 7.21496 42.8069 7.21233C43.1207 7.20971 43.4319 7.26722 43.7224 7.38149C44.0129 7.49577 44.2768 7.66453 44.4987 7.87792C44.7207 8.09131 44.8962 8.34507 45.015 8.62438C45.1339 8.9037 45.1937 9.20297 45.191 9.50475C45.1882 9.80652 45.123 10.1047 44.9991 10.382C44.8753 10.6593 44.6952 10.9101 44.4695 11.1198H44.4576ZM52 25.4267C52 26.0295 51.751 26.6076 51.3077 27.0338C50.8644 27.46 50.2632 27.6995 49.6364 27.6995H44.4364C43.8095 27.6995 43.2083 27.46 42.765 27.0338C42.3218 26.6076 42.0727 26.0295 42.0727 25.4267C42.0727 24.8239 42.3218 24.2459 42.765 23.8196C43.2083 23.3934 43.8095 23.154 44.4364 23.154H49.6364C50.2632 23.154 50.8644 23.3934 51.3077 23.8196C51.751 24.2459 52 24.8239 52 25.4267ZM44.4576 39.72C44.7052 39.9236 44.9064 40.1742 45.0484 40.4561C45.1905 40.7379 45.2705 41.045 45.2833 41.358C45.2961 41.671 45.2415 41.9832 45.1228 42.2749C45.0042 42.5666 44.8242 42.8316 44.594 43.0533C44.3638 43.2749 44.0885 43.4484 43.7852 43.5629C43.482 43.6774 43.1574 43.7303 42.8319 43.7184C42.5064 43.7066 42.1869 43.6301 41.8936 43.4939C41.6002 43.3577 41.3393 43.1647 41.1273 42.9269L37.44 39.3882C37.2142 39.1786 37.0342 38.9278 36.9103 38.6505C36.7864 38.3732 36.7212 38.075 36.7185 37.7732C36.7158 37.4714 36.7756 37.1722 36.8944 36.8928C37.0133 36.6135 37.1888 36.3598 37.4107 36.1464C37.6326 35.933 37.8965 35.7642 38.187 35.6499C38.4775 35.5357 38.7887 35.4782 39.1026 35.4808C39.4164 35.4834 39.7266 35.5461 40.015 35.6652C40.3033 35.7843 40.5641 35.9575 40.7822 36.1745L44.4576 39.72ZM11.3833 7.90609L15.0587 11.4402C15.2845 11.6499 15.4645 11.9007 15.5884 12.1779C15.7123 12.4552 15.7775 12.7535 15.7802 13.0552C15.783 13.357 15.7232 13.6563 15.6043 13.9356C15.4855 14.2149 15.31 14.4687 15.088 14.6821C14.8661 14.8954 14.6022 15.0642 14.3117 15.1785C14.0212 15.2928 13.71 15.3503 13.3961 15.3476C13.0823 15.345 12.7721 15.2823 12.4838 15.1632C12.1954 15.0441 11.9346 14.871 11.7165 14.6539L8.03636 11.1198C7.81691 10.9084 7.6429 10.6576 7.52425 10.3817C7.4056 10.1057 7.34465 9.80995 7.34487 9.51132C7.34509 9.21269 7.40648 8.91703 7.52553 8.64121C7.64458 8.3654 7.81897 8.11483 8.03873 7.90382C8.25849 7.69281 8.51932 7.52548 8.80633 7.4114C9.09335 7.29731 9.40092 7.2387 9.71149 7.23891C10.0221 7.23912 10.3295 7.29815 10.6164 7.41263C10.9032 7.5271 11.1638 7.69478 11.3833 7.90609ZM26.2505 0.653748C26.8774 0.653748 27.4786 0.893197 27.9219 1.31942C28.3652 1.74564 28.6142 2.32373 28.6142 2.9265V7.92655C28.6142 8.52932 28.3652 9.1074 27.9219 9.53362C27.4786 9.95985 26.8774 10.1993 26.2505 10.1993C25.6237 10.1993 25.0225 9.95985 24.5792 9.53362C24.1359 9.1074 23.8869 8.52932 23.8869 7.92655V2.9265C23.8869 2.32373 24.1359 1.74564 24.5792 1.31942C25.0225 0.893197 25.6237 0.653748 26.2505 0.653748Z" fill="#3E6329"/>
</svg>
