<svg width="56" height="53" viewBox="0 0 56 53" fill="none" xmlns="http://www.w3.org/2000/svg">
<path d="M25.9342 5.53837C26.5887 4.09098 26.9161 3.36728 27.3718 3.14442C27.7676 2.9508 28.2324 2.9508 28.6282 3.14442C29.084 3.36728 29.4114 4.09098 30.0659 5.53837L35.2793 17.067C35.473 17.4949 35.5697 17.7088 35.7195 17.8727C35.8518 18.0176 36.0138 18.1336 36.1945 18.213C36.3989 18.3027 36.6352 18.3273 37.108 18.3764L49.8427 19.7013C51.4415 19.8676 52.2407 19.9508 52.5967 20.3091C52.9057 20.6204 53.0493 21.0562 52.9849 21.4872C52.9108 21.9832 52.3137 22.5135 51.1194 23.5744L41.6067 32.0245C41.2538 32.338 41.0771 32.4949 40.9654 32.6858C40.8665 32.8549 40.8046 33.0425 40.7839 33.2364C40.7605 33.4557 40.8097 33.6848 40.9083 34.1432L43.5654 46.4905C43.899 48.0408 44.0658 48.8158 43.83 49.26C43.625 49.6463 43.249 49.9155 42.8133 49.9882C42.3118 50.0718 41.6154 49.6761 40.2227 48.8844L29.1301 42.5779C28.7184 42.3438 28.5126 42.2271 28.2938 42.1811C28.1001 42.1407 27.8999 42.1407 27.7063 42.1811C27.4874 42.2271 27.2816 42.3438 26.87 42.5779L15.7774 48.8844C14.3847 49.6761 13.6884 50.0718 13.1868 49.9882C12.7511 49.9155 12.375 49.6463 12.1702 49.26C11.9344 48.8158 12.1012 48.0408 12.4348 46.4905L15.0917 34.1432C15.1903 33.6848 15.2396 33.4557 15.2162 33.2364C15.1955 33.0425 15.1337 32.8549 15.0347 32.6858C14.9229 32.4949 14.7464 32.338 14.3933 32.0245L4.88077 23.5744C3.68652 22.5135 3.08938 21.9832 3.01514 21.4872C2.95068 21.0562 3.09433 20.6204 3.40346 20.3091C3.75935 19.9508 4.55875 19.8676 6.15755 19.7013L18.8922 18.3764C19.3649 18.3273 19.6012 18.3027 19.8055 18.213C19.9863 18.1336 20.1482 18.0176 20.2807 17.8727C20.4304 17.7088 20.5272 17.4949 20.7207 17.067L25.9342 5.53837Z" stroke="#3E6329" stroke-width="6" stroke-linecap="round" stroke-linejoin="round"/>
</svg>
